<mxfile host="app.diagrams.net" agent="Mozilla/5.0 (Windows NT 10.0; Win64; x64) AppleWebKit/537.36 (KHTML, like Gecko) Chrome/130.0.0.0 Safari/537.36 Edg/130.0.0.0" version="24.8.0">
  <diagram name="第 1 页" id="j2bMrI5FaiPhLmk5jfZU">
    <mxGraphModel dx="679" dy="372" grid="1" gridSize="10" guides="1" tooltips="1" connect="1" arrows="1" fold="1" page="1" pageScale="1" pageWidth="827" pageHeight="1169" math="0" shadow="0">
      <root>
        <mxCell id="0" />
        <mxCell id="1" parent="0" />
        <mxCell id="vtL7lDyUbymV2ma0Of8F-2" value="A" style="ellipse;whiteSpace=wrap;html=1;aspect=fixed;" vertex="1" parent="1">
          <mxGeometry x="100" y="350" width="20" height="20" as="geometry" />
        </mxCell>
        <mxCell id="vtL7lDyUbymV2ma0Of8F-3" value="B" style="ellipse;whiteSpace=wrap;html=1;aspect=fixed;" vertex="1" parent="1">
          <mxGeometry x="150" y="270" width="20" height="20" as="geometry" />
        </mxCell>
        <mxCell id="vtL7lDyUbymV2ma0Of8F-4" value="C" style="ellipse;whiteSpace=wrap;html=1;aspect=fixed;" vertex="1" parent="1">
          <mxGeometry x="200" y="400" width="20" height="20" as="geometry" />
        </mxCell>
        <mxCell id="vtL7lDyUbymV2ma0Of8F-5" value="D" style="ellipse;whiteSpace=wrap;html=1;aspect=fixed;" vertex="1" parent="1">
          <mxGeometry x="330" y="390" width="20" height="20" as="geometry" />
        </mxCell>
        <mxCell id="vtL7lDyUbymV2ma0Of8F-6" value="E" style="ellipse;whiteSpace=wrap;html=1;aspect=fixed;" vertex="1" parent="1">
          <mxGeometry x="200" y="330" width="20" height="20" as="geometry" />
        </mxCell>
        <mxCell id="vtL7lDyUbymV2ma0Of8F-7" value="F" style="ellipse;whiteSpace=wrap;html=1;aspect=fixed;" vertex="1" parent="1">
          <mxGeometry x="280" y="240" width="20" height="20" as="geometry" />
        </mxCell>
        <mxCell id="vtL7lDyUbymV2ma0Of8F-8" value="G" style="ellipse;whiteSpace=wrap;html=1;aspect=fixed;" vertex="1" parent="1">
          <mxGeometry x="290" y="320" width="20" height="20" as="geometry" />
        </mxCell>
        <mxCell id="vtL7lDyUbymV2ma0Of8F-10" value="H" style="ellipse;whiteSpace=wrap;html=1;aspect=fixed;" vertex="1" parent="1">
          <mxGeometry x="380" y="300" width="20" height="20" as="geometry" />
        </mxCell>
        <mxCell id="vtL7lDyUbymV2ma0Of8F-48" value="" style="endArrow=none;html=1;rounded=0;exitX=1;exitY=0;exitDx=0;exitDy=0;entryX=0;entryY=1;entryDx=0;entryDy=0;" edge="1" parent="1" source="vtL7lDyUbymV2ma0Of8F-2" target="vtL7lDyUbymV2ma0Of8F-3">
          <mxGeometry width="50" height="50" relative="1" as="geometry">
            <mxPoint x="110" y="340" as="sourcePoint" />
            <mxPoint x="160" y="290" as="targetPoint" />
          </mxGeometry>
        </mxCell>
        <mxCell id="vtL7lDyUbymV2ma0Of8F-49" value="" style="endArrow=none;html=1;rounded=0;entryX=-0.007;entryY=0.307;entryDx=0;entryDy=0;entryPerimeter=0;" edge="1" parent="1" source="vtL7lDyUbymV2ma0Of8F-2" target="vtL7lDyUbymV2ma0Of8F-4">
          <mxGeometry width="50" height="50" relative="1" as="geometry">
            <mxPoint x="130" y="400" as="sourcePoint" />
            <mxPoint x="180" y="350" as="targetPoint" />
          </mxGeometry>
        </mxCell>
        <mxCell id="vtL7lDyUbymV2ma0Of8F-50" value="" style="endArrow=none;html=1;rounded=0;entryX=0;entryY=0.5;entryDx=0;entryDy=0;" edge="1" parent="1" source="vtL7lDyUbymV2ma0Of8F-2" target="vtL7lDyUbymV2ma0Of8F-6">
          <mxGeometry width="50" height="50" relative="1" as="geometry">
            <mxPoint x="130" y="370" as="sourcePoint" />
            <mxPoint x="180" y="320" as="targetPoint" />
          </mxGeometry>
        </mxCell>
        <mxCell id="vtL7lDyUbymV2ma0Of8F-51" value="" style="endArrow=none;html=1;rounded=0;exitX=1;exitY=1;exitDx=0;exitDy=0;" edge="1" parent="1" source="vtL7lDyUbymV2ma0Of8F-3" target="vtL7lDyUbymV2ma0Of8F-6">
          <mxGeometry width="50" height="50" relative="1" as="geometry">
            <mxPoint x="150" y="270" as="sourcePoint" />
            <mxPoint x="200" y="334" as="targetPoint" />
          </mxGeometry>
        </mxCell>
        <mxCell id="vtL7lDyUbymV2ma0Of8F-52" value="" style="endArrow=none;html=1;rounded=0;exitX=1;exitY=0.5;exitDx=0;exitDy=0;entryX=0;entryY=1;entryDx=0;entryDy=0;" edge="1" parent="1" source="vtL7lDyUbymV2ma0Of8F-3" target="vtL7lDyUbymV2ma0Of8F-7">
          <mxGeometry width="50" height="50" relative="1" as="geometry">
            <mxPoint x="180" y="280" as="sourcePoint" />
            <mxPoint x="230" y="230" as="targetPoint" />
          </mxGeometry>
        </mxCell>
        <mxCell id="vtL7lDyUbymV2ma0Of8F-53" value="" style="endArrow=none;html=1;rounded=0;exitX=1;exitY=0.5;exitDx=0;exitDy=0;" edge="1" parent="1" source="vtL7lDyUbymV2ma0Of8F-6" target="vtL7lDyUbymV2ma0Of8F-8">
          <mxGeometry width="50" height="50" relative="1" as="geometry">
            <mxPoint x="230" y="340" as="sourcePoint" />
            <mxPoint x="280" y="290" as="targetPoint" />
          </mxGeometry>
        </mxCell>
        <mxCell id="vtL7lDyUbymV2ma0Of8F-54" value="" style="endArrow=none;html=1;rounded=0;exitX=1;exitY=0;exitDx=0;exitDy=0;entryX=0.5;entryY=1;entryDx=0;entryDy=0;" edge="1" parent="1" source="vtL7lDyUbymV2ma0Of8F-6" target="vtL7lDyUbymV2ma0Of8F-7">
          <mxGeometry width="50" height="50" relative="1" as="geometry">
            <mxPoint x="220" y="330" as="sourcePoint" />
            <mxPoint x="270" y="280" as="targetPoint" />
          </mxGeometry>
        </mxCell>
        <mxCell id="vtL7lDyUbymV2ma0Of8F-55" value="" style="endArrow=none;html=1;rounded=0;exitX=1;exitY=0.5;exitDx=0;exitDy=0;entryX=0;entryY=0.5;entryDx=0;entryDy=0;" edge="1" parent="1" source="vtL7lDyUbymV2ma0Of8F-4" target="vtL7lDyUbymV2ma0Of8F-5">
          <mxGeometry width="50" height="50" relative="1" as="geometry">
            <mxPoint x="260" y="410" as="sourcePoint" />
            <mxPoint x="310" y="360" as="targetPoint" />
          </mxGeometry>
        </mxCell>
        <mxCell id="vtL7lDyUbymV2ma0Of8F-56" value="" style="endArrow=none;html=1;rounded=0;exitX=0.5;exitY=0;exitDx=0;exitDy=0;" edge="1" parent="1" source="vtL7lDyUbymV2ma0Of8F-5">
          <mxGeometry width="50" height="50" relative="1" as="geometry">
            <mxPoint x="340" y="370" as="sourcePoint" />
            <mxPoint x="390" y="320" as="targetPoint" />
          </mxGeometry>
        </mxCell>
        <mxCell id="vtL7lDyUbymV2ma0Of8F-57" value="" style="endArrow=none;html=1;rounded=0;exitX=1;exitY=0.5;exitDx=0;exitDy=0;" edge="1" parent="1" source="vtL7lDyUbymV2ma0Of8F-8" target="vtL7lDyUbymV2ma0Of8F-5">
          <mxGeometry width="50" height="50" relative="1" as="geometry">
            <mxPoint x="330" y="310" as="sourcePoint" />
            <mxPoint x="380" y="260" as="targetPoint" />
          </mxGeometry>
        </mxCell>
        <mxCell id="vtL7lDyUbymV2ma0Of8F-59" value="10" style="text;html=1;align=center;verticalAlign=middle;resizable=0;points=[];autosize=1;strokeColor=none;fillColor=none;" vertex="1" parent="1">
          <mxGeometry x="110" y="300" width="40" height="30" as="geometry" />
        </mxCell>
        <mxCell id="vtL7lDyUbymV2ma0Of8F-60" value="7" style="text;html=1;align=center;verticalAlign=middle;resizable=0;points=[];autosize=1;strokeColor=none;fillColor=none;" vertex="1" parent="1">
          <mxGeometry x="165" y="298" width="30" height="30" as="geometry" />
        </mxCell>
        <mxCell id="vtL7lDyUbymV2ma0Of8F-61" value="11" style="text;html=1;align=center;verticalAlign=middle;resizable=0;points=[];autosize=1;strokeColor=none;fillColor=none;" vertex="1" parent="1">
          <mxGeometry x="130" y="328" width="40" height="30" as="geometry" />
        </mxCell>
        <mxCell id="vtL7lDyUbymV2ma0Of8F-63" value="15" style="text;html=1;align=center;verticalAlign=middle;resizable=0;points=[];autosize=1;strokeColor=none;fillColor=none;" vertex="1" parent="1">
          <mxGeometry x="150" y="368" width="40" height="30" as="geometry" />
        </mxCell>
        <mxCell id="vtL7lDyUbymV2ma0Of8F-64" value="20" style="text;html=1;align=center;verticalAlign=middle;resizable=0;points=[];autosize=1;strokeColor=none;fillColor=none;" vertex="1" parent="1">
          <mxGeometry x="240" y="378" width="40" height="30" as="geometry" />
        </mxCell>
        <mxCell id="vtL7lDyUbymV2ma0Of8F-65" value="9" style="text;html=1;align=center;verticalAlign=middle;resizable=0;points=[];autosize=1;strokeColor=none;fillColor=none;" vertex="1" parent="1">
          <mxGeometry x="235" y="318" width="30" height="30" as="geometry" />
        </mxCell>
        <mxCell id="vtL7lDyUbymV2ma0Of8F-66" value="13" style="text;html=1;align=center;verticalAlign=middle;resizable=0;points=[];autosize=1;strokeColor=none;fillColor=none;" vertex="1" parent="1">
          <mxGeometry x="195" y="250" width="40" height="30" as="geometry" />
        </mxCell>
        <mxCell id="vtL7lDyUbymV2ma0Of8F-67" value="20" style="text;html=1;align=center;verticalAlign=middle;resizable=0;points=[];autosize=1;strokeColor=none;fillColor=none;" vertex="1" parent="1">
          <mxGeometry x="230" y="268" width="40" height="30" as="geometry" />
        </mxCell>
        <mxCell id="vtL7lDyUbymV2ma0Of8F-68" value="8" style="text;html=1;align=center;verticalAlign=middle;resizable=0;points=[];autosize=1;strokeColor=none;fillColor=none;" vertex="1" parent="1">
          <mxGeometry x="295" y="348" width="30" height="30" as="geometry" />
        </mxCell>
        <mxCell id="vtL7lDyUbymV2ma0Of8F-69" value="10" style="text;html=1;align=center;verticalAlign=middle;resizable=0;points=[];autosize=1;strokeColor=none;fillColor=none;" vertex="1" parent="1">
          <mxGeometry x="360" y="338" width="40" height="30" as="geometry" />
        </mxCell>
        <mxCell id="vtL7lDyUbymV2ma0Of8F-70" value="A" style="ellipse;whiteSpace=wrap;html=1;aspect=fixed;fillColor=#f8cecc;strokeColor=#b85450;" vertex="1" parent="1">
          <mxGeometry x="120" y="620" width="20" height="20" as="geometry" />
        </mxCell>
        <mxCell id="vtL7lDyUbymV2ma0Of8F-71" value="B" style="ellipse;whiteSpace=wrap;html=1;aspect=fixed;" vertex="1" parent="1">
          <mxGeometry x="170" y="540" width="20" height="20" as="geometry" />
        </mxCell>
        <mxCell id="vtL7lDyUbymV2ma0Of8F-72" value="C" style="ellipse;whiteSpace=wrap;html=1;aspect=fixed;" vertex="1" parent="1">
          <mxGeometry x="220" y="670" width="20" height="20" as="geometry" />
        </mxCell>
        <mxCell id="vtL7lDyUbymV2ma0Of8F-73" value="D" style="ellipse;whiteSpace=wrap;html=1;aspect=fixed;fillColor=#f8cecc;strokeColor=#b85450;" vertex="1" parent="1">
          <mxGeometry x="350" y="660" width="20" height="20" as="geometry" />
        </mxCell>
        <mxCell id="vtL7lDyUbymV2ma0Of8F-74" value="E" style="ellipse;whiteSpace=wrap;html=1;aspect=fixed;fillColor=#f8cecc;strokeColor=#b85450;" vertex="1" parent="1">
          <mxGeometry x="220" y="600" width="20" height="20" as="geometry" />
        </mxCell>
        <mxCell id="vtL7lDyUbymV2ma0Of8F-75" value="F" style="ellipse;whiteSpace=wrap;html=1;aspect=fixed;" vertex="1" parent="1">
          <mxGeometry x="300" y="510" width="20" height="20" as="geometry" />
        </mxCell>
        <mxCell id="vtL7lDyUbymV2ma0Of8F-76" value="G" style="ellipse;whiteSpace=wrap;html=1;aspect=fixed;fillColor=#f8cecc;strokeColor=#b85450;" vertex="1" parent="1">
          <mxGeometry x="310" y="590" width="20" height="20" as="geometry" />
        </mxCell>
        <mxCell id="vtL7lDyUbymV2ma0Of8F-77" value="H" style="ellipse;whiteSpace=wrap;html=1;aspect=fixed;" vertex="1" parent="1">
          <mxGeometry x="400" y="570" width="20" height="20" as="geometry" />
        </mxCell>
        <mxCell id="vtL7lDyUbymV2ma0Of8F-78" value="" style="endArrow=none;html=1;rounded=0;exitX=1;exitY=0;exitDx=0;exitDy=0;entryX=0;entryY=1;entryDx=0;entryDy=0;" edge="1" parent="1" source="vtL7lDyUbymV2ma0Of8F-70" target="vtL7lDyUbymV2ma0Of8F-71">
          <mxGeometry width="50" height="50" relative="1" as="geometry">
            <mxPoint x="130" y="610" as="sourcePoint" />
            <mxPoint x="180" y="560" as="targetPoint" />
          </mxGeometry>
        </mxCell>
        <mxCell id="vtL7lDyUbymV2ma0Of8F-79" value="" style="endArrow=none;html=1;rounded=0;entryX=-0.007;entryY=0.307;entryDx=0;entryDy=0;entryPerimeter=0;" edge="1" parent="1" source="vtL7lDyUbymV2ma0Of8F-70" target="vtL7lDyUbymV2ma0Of8F-72">
          <mxGeometry width="50" height="50" relative="1" as="geometry">
            <mxPoint x="150" y="670" as="sourcePoint" />
            <mxPoint x="200" y="620" as="targetPoint" />
          </mxGeometry>
        </mxCell>
        <mxCell id="vtL7lDyUbymV2ma0Of8F-80" value="" style="endArrow=none;html=1;rounded=0;entryX=0;entryY=0.5;entryDx=0;entryDy=0;fillColor=#f8cecc;strokeColor=#b85450;" edge="1" parent="1" source="vtL7lDyUbymV2ma0Of8F-70" target="vtL7lDyUbymV2ma0Of8F-74">
          <mxGeometry width="50" height="50" relative="1" as="geometry">
            <mxPoint x="150" y="640" as="sourcePoint" />
            <mxPoint x="200" y="590" as="targetPoint" />
          </mxGeometry>
        </mxCell>
        <mxCell id="vtL7lDyUbymV2ma0Of8F-81" value="" style="endArrow=none;html=1;rounded=0;exitX=1;exitY=1;exitDx=0;exitDy=0;" edge="1" parent="1" source="vtL7lDyUbymV2ma0Of8F-71" target="vtL7lDyUbymV2ma0Of8F-74">
          <mxGeometry width="50" height="50" relative="1" as="geometry">
            <mxPoint x="170" y="540" as="sourcePoint" />
            <mxPoint x="220" y="604" as="targetPoint" />
          </mxGeometry>
        </mxCell>
        <mxCell id="vtL7lDyUbymV2ma0Of8F-82" value="" style="endArrow=none;html=1;rounded=0;exitX=1;exitY=0.5;exitDx=0;exitDy=0;entryX=0;entryY=1;entryDx=0;entryDy=0;" edge="1" parent="1" source="vtL7lDyUbymV2ma0Of8F-71" target="vtL7lDyUbymV2ma0Of8F-75">
          <mxGeometry width="50" height="50" relative="1" as="geometry">
            <mxPoint x="200" y="550" as="sourcePoint" />
            <mxPoint x="250" y="500" as="targetPoint" />
          </mxGeometry>
        </mxCell>
        <mxCell id="vtL7lDyUbymV2ma0Of8F-83" value="" style="endArrow=none;html=1;rounded=0;exitX=1;exitY=0.5;exitDx=0;exitDy=0;fillColor=#f8cecc;strokeColor=#b85450;" edge="1" parent="1" source="vtL7lDyUbymV2ma0Of8F-74" target="vtL7lDyUbymV2ma0Of8F-76">
          <mxGeometry width="50" height="50" relative="1" as="geometry">
            <mxPoint x="250" y="610" as="sourcePoint" />
            <mxPoint x="300" y="560" as="targetPoint" />
          </mxGeometry>
        </mxCell>
        <mxCell id="vtL7lDyUbymV2ma0Of8F-84" value="" style="endArrow=none;html=1;rounded=0;exitX=1;exitY=0;exitDx=0;exitDy=0;entryX=0.5;entryY=1;entryDx=0;entryDy=0;" edge="1" parent="1" source="vtL7lDyUbymV2ma0Of8F-74" target="vtL7lDyUbymV2ma0Of8F-75">
          <mxGeometry width="50" height="50" relative="1" as="geometry">
            <mxPoint x="240" y="600" as="sourcePoint" />
            <mxPoint x="290" y="550" as="targetPoint" />
          </mxGeometry>
        </mxCell>
        <mxCell id="vtL7lDyUbymV2ma0Of8F-85" value="" style="endArrow=none;html=1;rounded=0;exitX=1;exitY=0.5;exitDx=0;exitDy=0;entryX=0;entryY=0.5;entryDx=0;entryDy=0;" edge="1" parent="1" source="vtL7lDyUbymV2ma0Of8F-72" target="vtL7lDyUbymV2ma0Of8F-73">
          <mxGeometry width="50" height="50" relative="1" as="geometry">
            <mxPoint x="280" y="680" as="sourcePoint" />
            <mxPoint x="330" y="630" as="targetPoint" />
          </mxGeometry>
        </mxCell>
        <mxCell id="vtL7lDyUbymV2ma0Of8F-86" value="" style="endArrow=none;html=1;rounded=0;exitX=0.5;exitY=0;exitDx=0;exitDy=0;" edge="1" parent="1" source="vtL7lDyUbymV2ma0Of8F-73">
          <mxGeometry width="50" height="50" relative="1" as="geometry">
            <mxPoint x="360" y="640" as="sourcePoint" />
            <mxPoint x="410" y="590" as="targetPoint" />
          </mxGeometry>
        </mxCell>
        <mxCell id="vtL7lDyUbymV2ma0Of8F-87" value="" style="endArrow=none;html=1;rounded=0;exitX=1;exitY=0.5;exitDx=0;exitDy=0;fillColor=#f8cecc;strokeColor=#b85450;" edge="1" parent="1" source="vtL7lDyUbymV2ma0Of8F-76" target="vtL7lDyUbymV2ma0Of8F-73">
          <mxGeometry width="50" height="50" relative="1" as="geometry">
            <mxPoint x="350" y="580" as="sourcePoint" />
            <mxPoint x="400" y="530" as="targetPoint" />
          </mxGeometry>
        </mxCell>
        <mxCell id="vtL7lDyUbymV2ma0Of8F-88" value="10" style="text;html=1;align=center;verticalAlign=middle;resizable=0;points=[];autosize=1;strokeColor=none;fillColor=none;" vertex="1" parent="1">
          <mxGeometry x="130" y="570" width="40" height="30" as="geometry" />
        </mxCell>
        <mxCell id="vtL7lDyUbymV2ma0Of8F-89" value="7" style="text;html=1;align=center;verticalAlign=middle;resizable=0;points=[];autosize=1;strokeColor=none;fillColor=none;" vertex="1" parent="1">
          <mxGeometry x="185" y="568" width="30" height="30" as="geometry" />
        </mxCell>
        <mxCell id="vtL7lDyUbymV2ma0Of8F-90" value="11" style="text;html=1;align=center;verticalAlign=middle;resizable=0;points=[];autosize=1;strokeColor=none;fillColor=none;" vertex="1" parent="1">
          <mxGeometry x="150" y="598" width="40" height="30" as="geometry" />
        </mxCell>
        <mxCell id="vtL7lDyUbymV2ma0Of8F-91" value="15" style="text;html=1;align=center;verticalAlign=middle;resizable=0;points=[];autosize=1;strokeColor=none;fillColor=none;" vertex="1" parent="1">
          <mxGeometry x="170" y="638" width="40" height="30" as="geometry" />
        </mxCell>
        <mxCell id="vtL7lDyUbymV2ma0Of8F-92" value="20" style="text;html=1;align=center;verticalAlign=middle;resizable=0;points=[];autosize=1;strokeColor=none;fillColor=none;" vertex="1" parent="1">
          <mxGeometry x="260" y="648" width="40" height="30" as="geometry" />
        </mxCell>
        <mxCell id="vtL7lDyUbymV2ma0Of8F-93" value="9" style="text;html=1;align=center;verticalAlign=middle;resizable=0;points=[];autosize=1;strokeColor=none;fillColor=none;" vertex="1" parent="1">
          <mxGeometry x="255" y="588" width="30" height="30" as="geometry" />
        </mxCell>
        <mxCell id="vtL7lDyUbymV2ma0Of8F-94" value="13" style="text;html=1;align=center;verticalAlign=middle;resizable=0;points=[];autosize=1;strokeColor=none;fillColor=none;" vertex="1" parent="1">
          <mxGeometry x="215" y="520" width="40" height="30" as="geometry" />
        </mxCell>
        <mxCell id="vtL7lDyUbymV2ma0Of8F-95" value="20" style="text;html=1;align=center;verticalAlign=middle;resizable=0;points=[];autosize=1;strokeColor=none;fillColor=none;" vertex="1" parent="1">
          <mxGeometry x="250" y="538" width="40" height="30" as="geometry" />
        </mxCell>
        <mxCell id="vtL7lDyUbymV2ma0Of8F-96" value="8" style="text;html=1;align=center;verticalAlign=middle;resizable=0;points=[];autosize=1;strokeColor=none;fillColor=none;" vertex="1" parent="1">
          <mxGeometry x="315" y="618" width="30" height="30" as="geometry" />
        </mxCell>
        <mxCell id="vtL7lDyUbymV2ma0Of8F-97" value="10" style="text;html=1;align=center;verticalAlign=middle;resizable=0;points=[];autosize=1;strokeColor=none;fillColor=none;" vertex="1" parent="1">
          <mxGeometry x="380" y="608" width="40" height="30" as="geometry" />
        </mxCell>
        <mxCell id="vtL7lDyUbymV2ma0Of8F-98" value="A到D最短路径" style="text;html=1;align=center;verticalAlign=middle;resizable=0;points=[];autosize=1;strokeColor=none;fillColor=none;" vertex="1" parent="1">
          <mxGeometry x="210" y="470" width="100" height="30" as="geometry" />
        </mxCell>
        <mxCell id="vtL7lDyUbymV2ma0Of8F-99" value="A" style="ellipse;whiteSpace=wrap;html=1;aspect=fixed;" vertex="1" parent="1">
          <mxGeometry x="110" y="850" width="20" height="20" as="geometry" />
        </mxCell>
        <mxCell id="vtL7lDyUbymV2ma0Of8F-100" value="B" style="ellipse;whiteSpace=wrap;html=1;aspect=fixed;fillColor=#f8cecc;strokeColor=#b85450;" vertex="1" parent="1">
          <mxGeometry x="160" y="770" width="20" height="20" as="geometry" />
        </mxCell>
        <mxCell id="vtL7lDyUbymV2ma0Of8F-101" value="C" style="ellipse;whiteSpace=wrap;html=1;aspect=fixed;" vertex="1" parent="1">
          <mxGeometry x="210" y="900" width="20" height="20" as="geometry" />
        </mxCell>
        <mxCell id="vtL7lDyUbymV2ma0Of8F-102" value="D" style="ellipse;whiteSpace=wrap;html=1;aspect=fixed;fillColor=#f8cecc;strokeColor=#b85450;" vertex="1" parent="1">
          <mxGeometry x="340" y="890" width="20" height="20" as="geometry" />
        </mxCell>
        <mxCell id="vtL7lDyUbymV2ma0Of8F-103" value="E" style="ellipse;whiteSpace=wrap;html=1;aspect=fixed;fillColor=#f8cecc;strokeColor=#b85450;" vertex="1" parent="1">
          <mxGeometry x="210" y="830" width="20" height="20" as="geometry" />
        </mxCell>
        <mxCell id="vtL7lDyUbymV2ma0Of8F-104" value="F" style="ellipse;whiteSpace=wrap;html=1;aspect=fixed;" vertex="1" parent="1">
          <mxGeometry x="290" y="740" width="20" height="20" as="geometry" />
        </mxCell>
        <mxCell id="vtL7lDyUbymV2ma0Of8F-105" value="G" style="ellipse;whiteSpace=wrap;html=1;aspect=fixed;fillColor=#f8cecc;strokeColor=#b85450;" vertex="1" parent="1">
          <mxGeometry x="300" y="820" width="20" height="20" as="geometry" />
        </mxCell>
        <mxCell id="vtL7lDyUbymV2ma0Of8F-106" value="H" style="ellipse;whiteSpace=wrap;html=1;aspect=fixed;fillColor=#f8cecc;strokeColor=#b85450;" vertex="1" parent="1">
          <mxGeometry x="390" y="800" width="20" height="20" as="geometry" />
        </mxCell>
        <mxCell id="vtL7lDyUbymV2ma0Of8F-107" value="" style="endArrow=none;html=1;rounded=0;exitX=1;exitY=0;exitDx=0;exitDy=0;entryX=0;entryY=1;entryDx=0;entryDy=0;" edge="1" parent="1" source="vtL7lDyUbymV2ma0Of8F-99" target="vtL7lDyUbymV2ma0Of8F-100">
          <mxGeometry width="50" height="50" relative="1" as="geometry">
            <mxPoint x="120" y="840" as="sourcePoint" />
            <mxPoint x="170" y="790" as="targetPoint" />
          </mxGeometry>
        </mxCell>
        <mxCell id="vtL7lDyUbymV2ma0Of8F-108" value="" style="endArrow=none;html=1;rounded=0;entryX=-0.007;entryY=0.307;entryDx=0;entryDy=0;entryPerimeter=0;" edge="1" parent="1" source="vtL7lDyUbymV2ma0Of8F-99" target="vtL7lDyUbymV2ma0Of8F-101">
          <mxGeometry width="50" height="50" relative="1" as="geometry">
            <mxPoint x="140" y="900" as="sourcePoint" />
            <mxPoint x="190" y="850" as="targetPoint" />
          </mxGeometry>
        </mxCell>
        <mxCell id="vtL7lDyUbymV2ma0Of8F-109" value="" style="endArrow=none;html=1;rounded=0;entryX=0;entryY=0.5;entryDx=0;entryDy=0;" edge="1" parent="1" source="vtL7lDyUbymV2ma0Of8F-99" target="vtL7lDyUbymV2ma0Of8F-103">
          <mxGeometry width="50" height="50" relative="1" as="geometry">
            <mxPoint x="140" y="870" as="sourcePoint" />
            <mxPoint x="190" y="820" as="targetPoint" />
          </mxGeometry>
        </mxCell>
        <mxCell id="vtL7lDyUbymV2ma0Of8F-110" value="" style="endArrow=none;html=1;rounded=0;exitX=1;exitY=1;exitDx=0;exitDy=0;fillColor=#f8cecc;strokeColor=#b85450;" edge="1" parent="1" source="vtL7lDyUbymV2ma0Of8F-100" target="vtL7lDyUbymV2ma0Of8F-103">
          <mxGeometry width="50" height="50" relative="1" as="geometry">
            <mxPoint x="160" y="770" as="sourcePoint" />
            <mxPoint x="210" y="834" as="targetPoint" />
          </mxGeometry>
        </mxCell>
        <mxCell id="vtL7lDyUbymV2ma0Of8F-111" value="" style="endArrow=none;html=1;rounded=0;exitX=1;exitY=0.5;exitDx=0;exitDy=0;entryX=0;entryY=1;entryDx=0;entryDy=0;" edge="1" parent="1" source="vtL7lDyUbymV2ma0Of8F-100" target="vtL7lDyUbymV2ma0Of8F-104">
          <mxGeometry width="50" height="50" relative="1" as="geometry">
            <mxPoint x="190" y="780" as="sourcePoint" />
            <mxPoint x="240" y="730" as="targetPoint" />
          </mxGeometry>
        </mxCell>
        <mxCell id="vtL7lDyUbymV2ma0Of8F-112" value="" style="endArrow=none;html=1;rounded=0;exitX=1;exitY=0.5;exitDx=0;exitDy=0;fillColor=#f8cecc;strokeColor=#b85450;" edge="1" parent="1" source="vtL7lDyUbymV2ma0Of8F-103" target="vtL7lDyUbymV2ma0Of8F-105">
          <mxGeometry width="50" height="50" relative="1" as="geometry">
            <mxPoint x="240" y="840" as="sourcePoint" />
            <mxPoint x="290" y="790" as="targetPoint" />
          </mxGeometry>
        </mxCell>
        <mxCell id="vtL7lDyUbymV2ma0Of8F-113" value="" style="endArrow=none;html=1;rounded=0;exitX=1;exitY=0;exitDx=0;exitDy=0;entryX=0.5;entryY=1;entryDx=0;entryDy=0;" edge="1" parent="1" source="vtL7lDyUbymV2ma0Of8F-103" target="vtL7lDyUbymV2ma0Of8F-104">
          <mxGeometry width="50" height="50" relative="1" as="geometry">
            <mxPoint x="230" y="830" as="sourcePoint" />
            <mxPoint x="280" y="780" as="targetPoint" />
          </mxGeometry>
        </mxCell>
        <mxCell id="vtL7lDyUbymV2ma0Of8F-114" value="" style="endArrow=none;html=1;rounded=0;exitX=1;exitY=0.5;exitDx=0;exitDy=0;entryX=0;entryY=0.5;entryDx=0;entryDy=0;" edge="1" parent="1" source="vtL7lDyUbymV2ma0Of8F-101" target="vtL7lDyUbymV2ma0Of8F-102">
          <mxGeometry width="50" height="50" relative="1" as="geometry">
            <mxPoint x="270" y="910" as="sourcePoint" />
            <mxPoint x="320" y="860" as="targetPoint" />
          </mxGeometry>
        </mxCell>
        <mxCell id="vtL7lDyUbymV2ma0Of8F-115" value="" style="endArrow=none;html=1;rounded=0;exitX=0.5;exitY=0;exitDx=0;exitDy=0;fillColor=#f8cecc;strokeColor=#b85450;" edge="1" parent="1" source="vtL7lDyUbymV2ma0Of8F-102">
          <mxGeometry width="50" height="50" relative="1" as="geometry">
            <mxPoint x="350" y="870" as="sourcePoint" />
            <mxPoint x="400" y="820" as="targetPoint" />
          </mxGeometry>
        </mxCell>
        <mxCell id="vtL7lDyUbymV2ma0Of8F-116" value="" style="endArrow=none;html=1;rounded=0;exitX=1;exitY=0.5;exitDx=0;exitDy=0;fillColor=#f8cecc;strokeColor=#b85450;" edge="1" parent="1" source="vtL7lDyUbymV2ma0Of8F-105" target="vtL7lDyUbymV2ma0Of8F-102">
          <mxGeometry width="50" height="50" relative="1" as="geometry">
            <mxPoint x="340" y="810" as="sourcePoint" />
            <mxPoint x="390" y="760" as="targetPoint" />
          </mxGeometry>
        </mxCell>
        <mxCell id="vtL7lDyUbymV2ma0Of8F-117" value="10" style="text;html=1;align=center;verticalAlign=middle;resizable=0;points=[];autosize=1;strokeColor=none;fillColor=none;" vertex="1" parent="1">
          <mxGeometry x="120" y="800" width="40" height="30" as="geometry" />
        </mxCell>
        <mxCell id="vtL7lDyUbymV2ma0Of8F-118" value="7" style="text;html=1;align=center;verticalAlign=middle;resizable=0;points=[];autosize=1;strokeColor=none;fillColor=none;" vertex="1" parent="1">
          <mxGeometry x="175" y="798" width="30" height="30" as="geometry" />
        </mxCell>
        <mxCell id="vtL7lDyUbymV2ma0Of8F-119" value="11" style="text;html=1;align=center;verticalAlign=middle;resizable=0;points=[];autosize=1;strokeColor=none;fillColor=none;" vertex="1" parent="1">
          <mxGeometry x="140" y="828" width="40" height="30" as="geometry" />
        </mxCell>
        <mxCell id="vtL7lDyUbymV2ma0Of8F-120" value="15" style="text;html=1;align=center;verticalAlign=middle;resizable=0;points=[];autosize=1;strokeColor=none;fillColor=none;" vertex="1" parent="1">
          <mxGeometry x="160" y="868" width="40" height="30" as="geometry" />
        </mxCell>
        <mxCell id="vtL7lDyUbymV2ma0Of8F-121" value="20" style="text;html=1;align=center;verticalAlign=middle;resizable=0;points=[];autosize=1;strokeColor=none;fillColor=none;" vertex="1" parent="1">
          <mxGeometry x="250" y="878" width="40" height="30" as="geometry" />
        </mxCell>
        <mxCell id="vtL7lDyUbymV2ma0Of8F-122" value="9" style="text;html=1;align=center;verticalAlign=middle;resizable=0;points=[];autosize=1;strokeColor=none;fillColor=none;" vertex="1" parent="1">
          <mxGeometry x="245" y="818" width="30" height="30" as="geometry" />
        </mxCell>
        <mxCell id="vtL7lDyUbymV2ma0Of8F-123" value="13" style="text;html=1;align=center;verticalAlign=middle;resizable=0;points=[];autosize=1;strokeColor=none;fillColor=none;" vertex="1" parent="1">
          <mxGeometry x="205" y="750" width="40" height="30" as="geometry" />
        </mxCell>
        <mxCell id="vtL7lDyUbymV2ma0Of8F-124" value="20" style="text;html=1;align=center;verticalAlign=middle;resizable=0;points=[];autosize=1;strokeColor=none;fillColor=none;" vertex="1" parent="1">
          <mxGeometry x="240" y="768" width="40" height="30" as="geometry" />
        </mxCell>
        <mxCell id="vtL7lDyUbymV2ma0Of8F-125" value="8" style="text;html=1;align=center;verticalAlign=middle;resizable=0;points=[];autosize=1;strokeColor=none;fillColor=none;" vertex="1" parent="1">
          <mxGeometry x="305" y="848" width="30" height="30" as="geometry" />
        </mxCell>
        <mxCell id="vtL7lDyUbymV2ma0Of8F-126" value="10" style="text;html=1;align=center;verticalAlign=middle;resizable=0;points=[];autosize=1;strokeColor=none;fillColor=none;" vertex="1" parent="1">
          <mxGeometry x="370" y="838" width="40" height="30" as="geometry" />
        </mxCell>
        <mxCell id="vtL7lDyUbymV2ma0Of8F-127" value="B到H最短路径" style="text;html=1;align=center;verticalAlign=middle;resizable=0;points=[];autosize=1;strokeColor=none;fillColor=none;" vertex="1" parent="1">
          <mxGeometry x="180" y="710" width="100" height="30" as="geometry" />
        </mxCell>
        <mxCell id="vtL7lDyUbymV2ma0Of8F-128" value="A" style="ellipse;whiteSpace=wrap;html=1;aspect=fixed;fillColor=#f8cecc;strokeColor=#b85450;" vertex="1" parent="1">
          <mxGeometry x="550" y="630" width="20" height="20" as="geometry" />
        </mxCell>
        <mxCell id="vtL7lDyUbymV2ma0Of8F-129" value="B" style="ellipse;whiteSpace=wrap;html=1;aspect=fixed;fillColor=#f8cecc;strokeColor=#b85450;" vertex="1" parent="1">
          <mxGeometry x="600" y="550" width="20" height="20" as="geometry" />
        </mxCell>
        <mxCell id="vtL7lDyUbymV2ma0Of8F-130" value="C" style="ellipse;whiteSpace=wrap;html=1;aspect=fixed;fillColor=#f8cecc;strokeColor=#b85450;" vertex="1" parent="1">
          <mxGeometry x="650" y="680" width="20" height="20" as="geometry" />
        </mxCell>
        <mxCell id="vtL7lDyUbymV2ma0Of8F-131" value="D" style="ellipse;whiteSpace=wrap;html=1;aspect=fixed;fillColor=#f8cecc;strokeColor=#b85450;" vertex="1" parent="1">
          <mxGeometry x="780" y="670" width="20" height="20" as="geometry" />
        </mxCell>
        <mxCell id="vtL7lDyUbymV2ma0Of8F-132" value="E" style="ellipse;whiteSpace=wrap;html=1;aspect=fixed;" vertex="1" parent="1">
          <mxGeometry x="650" y="610" width="20" height="20" as="geometry" />
        </mxCell>
        <mxCell id="vtL7lDyUbymV2ma0Of8F-133" value="F" style="ellipse;whiteSpace=wrap;html=1;aspect=fixed;" vertex="1" parent="1">
          <mxGeometry x="730" y="520" width="20" height="20" as="geometry" />
        </mxCell>
        <mxCell id="vtL7lDyUbymV2ma0Of8F-134" value="G" style="ellipse;whiteSpace=wrap;html=1;aspect=fixed;" vertex="1" parent="1">
          <mxGeometry x="740" y="600" width="20" height="20" as="geometry" />
        </mxCell>
        <mxCell id="vtL7lDyUbymV2ma0Of8F-135" value="H" style="ellipse;whiteSpace=wrap;html=1;aspect=fixed;fillColor=#f8cecc;strokeColor=#b85450;" vertex="1" parent="1">
          <mxGeometry x="830" y="580" width="20" height="20" as="geometry" />
        </mxCell>
        <mxCell id="vtL7lDyUbymV2ma0Of8F-136" value="" style="endArrow=none;html=1;rounded=0;exitX=1;exitY=0;exitDx=0;exitDy=0;entryX=0;entryY=1;entryDx=0;entryDy=0;fillColor=#f8cecc;strokeColor=#b85450;" edge="1" parent="1" source="vtL7lDyUbymV2ma0Of8F-128" target="vtL7lDyUbymV2ma0Of8F-129">
          <mxGeometry width="50" height="50" relative="1" as="geometry">
            <mxPoint x="560" y="620" as="sourcePoint" />
            <mxPoint x="610" y="570" as="targetPoint" />
          </mxGeometry>
        </mxCell>
        <mxCell id="vtL7lDyUbymV2ma0Of8F-137" value="" style="endArrow=none;html=1;rounded=0;entryX=-0.007;entryY=0.307;entryDx=0;entryDy=0;entryPerimeter=0;fillColor=#f8cecc;strokeColor=#b85450;" edge="1" parent="1" source="vtL7lDyUbymV2ma0Of8F-128" target="vtL7lDyUbymV2ma0Of8F-130">
          <mxGeometry width="50" height="50" relative="1" as="geometry">
            <mxPoint x="580" y="680" as="sourcePoint" />
            <mxPoint x="630" y="630" as="targetPoint" />
          </mxGeometry>
        </mxCell>
        <mxCell id="vtL7lDyUbymV2ma0Of8F-138" value="" style="endArrow=none;html=1;rounded=0;entryX=0;entryY=0.5;entryDx=0;entryDy=0;" edge="1" parent="1" source="vtL7lDyUbymV2ma0Of8F-128" target="vtL7lDyUbymV2ma0Of8F-132">
          <mxGeometry width="50" height="50" relative="1" as="geometry">
            <mxPoint x="580" y="650" as="sourcePoint" />
            <mxPoint x="630" y="600" as="targetPoint" />
          </mxGeometry>
        </mxCell>
        <mxCell id="vtL7lDyUbymV2ma0Of8F-139" value="" style="endArrow=none;html=1;rounded=0;exitX=1;exitY=1;exitDx=0;exitDy=0;" edge="1" parent="1" source="vtL7lDyUbymV2ma0Of8F-129" target="vtL7lDyUbymV2ma0Of8F-132">
          <mxGeometry width="50" height="50" relative="1" as="geometry">
            <mxPoint x="600" y="550" as="sourcePoint" />
            <mxPoint x="650" y="614" as="targetPoint" />
          </mxGeometry>
        </mxCell>
        <mxCell id="vtL7lDyUbymV2ma0Of8F-140" value="" style="endArrow=none;html=1;rounded=0;exitX=1;exitY=0.5;exitDx=0;exitDy=0;entryX=0;entryY=1;entryDx=0;entryDy=0;" edge="1" parent="1" source="vtL7lDyUbymV2ma0Of8F-129" target="vtL7lDyUbymV2ma0Of8F-133">
          <mxGeometry width="50" height="50" relative="1" as="geometry">
            <mxPoint x="630" y="560" as="sourcePoint" />
            <mxPoint x="680" y="510" as="targetPoint" />
          </mxGeometry>
        </mxCell>
        <mxCell id="vtL7lDyUbymV2ma0Of8F-141" value="" style="endArrow=none;html=1;rounded=0;exitX=1;exitY=0.5;exitDx=0;exitDy=0;" edge="1" parent="1" source="vtL7lDyUbymV2ma0Of8F-132" target="vtL7lDyUbymV2ma0Of8F-134">
          <mxGeometry width="50" height="50" relative="1" as="geometry">
            <mxPoint x="680" y="620" as="sourcePoint" />
            <mxPoint x="730" y="570" as="targetPoint" />
          </mxGeometry>
        </mxCell>
        <mxCell id="vtL7lDyUbymV2ma0Of8F-142" value="" style="endArrow=none;html=1;rounded=0;exitX=1;exitY=0;exitDx=0;exitDy=0;entryX=0.5;entryY=1;entryDx=0;entryDy=0;" edge="1" parent="1" source="vtL7lDyUbymV2ma0Of8F-132" target="vtL7lDyUbymV2ma0Of8F-133">
          <mxGeometry width="50" height="50" relative="1" as="geometry">
            <mxPoint x="670" y="610" as="sourcePoint" />
            <mxPoint x="720" y="560" as="targetPoint" />
          </mxGeometry>
        </mxCell>
        <mxCell id="vtL7lDyUbymV2ma0Of8F-143" value="" style="endArrow=none;html=1;rounded=0;exitX=1;exitY=0.5;exitDx=0;exitDy=0;entryX=0;entryY=0.5;entryDx=0;entryDy=0;fillColor=#f8cecc;strokeColor=#b85450;" edge="1" parent="1" source="vtL7lDyUbymV2ma0Of8F-130" target="vtL7lDyUbymV2ma0Of8F-131">
          <mxGeometry width="50" height="50" relative="1" as="geometry">
            <mxPoint x="710" y="690" as="sourcePoint" />
            <mxPoint x="760" y="640" as="targetPoint" />
          </mxGeometry>
        </mxCell>
        <mxCell id="vtL7lDyUbymV2ma0Of8F-144" value="" style="endArrow=none;html=1;rounded=0;exitX=0.5;exitY=0;exitDx=0;exitDy=0;fillColor=#f8cecc;strokeColor=#b85450;" edge="1" parent="1" source="vtL7lDyUbymV2ma0Of8F-131">
          <mxGeometry width="50" height="50" relative="1" as="geometry">
            <mxPoint x="790" y="650" as="sourcePoint" />
            <mxPoint x="840" y="600" as="targetPoint" />
          </mxGeometry>
        </mxCell>
        <mxCell id="vtL7lDyUbymV2ma0Of8F-145" value="" style="endArrow=none;html=1;rounded=0;exitX=1;exitY=0.5;exitDx=0;exitDy=0;" edge="1" parent="1" source="vtL7lDyUbymV2ma0Of8F-134" target="vtL7lDyUbymV2ma0Of8F-131">
          <mxGeometry width="50" height="50" relative="1" as="geometry">
            <mxPoint x="780" y="590" as="sourcePoint" />
            <mxPoint x="830" y="540" as="targetPoint" />
          </mxGeometry>
        </mxCell>
        <mxCell id="vtL7lDyUbymV2ma0Of8F-146" value="10" style="text;html=1;align=center;verticalAlign=middle;resizable=0;points=[];autosize=1;strokeColor=none;fillColor=none;" vertex="1" parent="1">
          <mxGeometry x="560" y="580" width="40" height="30" as="geometry" />
        </mxCell>
        <mxCell id="vtL7lDyUbymV2ma0Of8F-147" value="7" style="text;html=1;align=center;verticalAlign=middle;resizable=0;points=[];autosize=1;strokeColor=none;fillColor=none;" vertex="1" parent="1">
          <mxGeometry x="615" y="578" width="30" height="30" as="geometry" />
        </mxCell>
        <mxCell id="vtL7lDyUbymV2ma0Of8F-148" value="11" style="text;html=1;align=center;verticalAlign=middle;resizable=0;points=[];autosize=1;strokeColor=none;fillColor=none;" vertex="1" parent="1">
          <mxGeometry x="580" y="608" width="40" height="30" as="geometry" />
        </mxCell>
        <mxCell id="vtL7lDyUbymV2ma0Of8F-149" value="15" style="text;html=1;align=center;verticalAlign=middle;resizable=0;points=[];autosize=1;strokeColor=none;fillColor=none;" vertex="1" parent="1">
          <mxGeometry x="600" y="648" width="40" height="30" as="geometry" />
        </mxCell>
        <mxCell id="vtL7lDyUbymV2ma0Of8F-150" value="20" style="text;html=1;align=center;verticalAlign=middle;resizable=0;points=[];autosize=1;strokeColor=none;fillColor=none;" vertex="1" parent="1">
          <mxGeometry x="690" y="658" width="40" height="30" as="geometry" />
        </mxCell>
        <mxCell id="vtL7lDyUbymV2ma0Of8F-151" value="9" style="text;html=1;align=center;verticalAlign=middle;resizable=0;points=[];autosize=1;strokeColor=none;fillColor=none;" vertex="1" parent="1">
          <mxGeometry x="685" y="598" width="30" height="30" as="geometry" />
        </mxCell>
        <mxCell id="vtL7lDyUbymV2ma0Of8F-152" value="13" style="text;html=1;align=center;verticalAlign=middle;resizable=0;points=[];autosize=1;strokeColor=none;fillColor=none;" vertex="1" parent="1">
          <mxGeometry x="645" y="530" width="40" height="30" as="geometry" />
        </mxCell>
        <mxCell id="vtL7lDyUbymV2ma0Of8F-153" value="20" style="text;html=1;align=center;verticalAlign=middle;resizable=0;points=[];autosize=1;strokeColor=none;fillColor=none;" vertex="1" parent="1">
          <mxGeometry x="680" y="548" width="40" height="30" as="geometry" />
        </mxCell>
        <mxCell id="vtL7lDyUbymV2ma0Of8F-154" value="8" style="text;html=1;align=center;verticalAlign=middle;resizable=0;points=[];autosize=1;strokeColor=none;fillColor=none;" vertex="1" parent="1">
          <mxGeometry x="745" y="628" width="30" height="30" as="geometry" />
        </mxCell>
        <mxCell id="vtL7lDyUbymV2ma0Of8F-155" value="10" style="text;html=1;align=center;verticalAlign=middle;resizable=0;points=[];autosize=1;strokeColor=none;fillColor=none;" vertex="1" parent="1">
          <mxGeometry x="810" y="618" width="40" height="30" as="geometry" />
        </mxCell>
        <mxCell id="vtL7lDyUbymV2ma0Of8F-156" value="删除E节点后，B到H最短路径" style="text;html=1;align=center;verticalAlign=middle;resizable=0;points=[];autosize=1;strokeColor=none;fillColor=none;" vertex="1" parent="1">
          <mxGeometry x="590" y="480" width="180" height="30" as="geometry" />
        </mxCell>
        <mxCell id="vtL7lDyUbymV2ma0Of8F-157" value="A" style="ellipse;whiteSpace=wrap;html=1;aspect=fixed;" vertex="1" parent="1">
          <mxGeometry x="527" y="880" width="20" height="20" as="geometry" />
        </mxCell>
        <mxCell id="vtL7lDyUbymV2ma0Of8F-158" value="B" style="ellipse;whiteSpace=wrap;html=1;aspect=fixed;" vertex="1" parent="1">
          <mxGeometry x="577" y="800" width="20" height="20" as="geometry" />
        </mxCell>
        <mxCell id="vtL7lDyUbymV2ma0Of8F-159" value="C" style="ellipse;whiteSpace=wrap;html=1;aspect=fixed;" vertex="1" parent="1">
          <mxGeometry x="627" y="930" width="20" height="20" as="geometry" />
        </mxCell>
        <mxCell id="vtL7lDyUbymV2ma0Of8F-160" value="D" style="ellipse;whiteSpace=wrap;html=1;aspect=fixed;fillColor=#e51400;fontColor=#ffffff;strokeColor=#B20000;" vertex="1" parent="1">
          <mxGeometry x="757" y="920" width="20" height="20" as="geometry" />
        </mxCell>
        <mxCell id="vtL7lDyUbymV2ma0Of8F-161" value="E" style="ellipse;whiteSpace=wrap;html=1;aspect=fixed;" vertex="1" parent="1">
          <mxGeometry x="627" y="860" width="20" height="20" as="geometry" />
        </mxCell>
        <mxCell id="vtL7lDyUbymV2ma0Of8F-162" value="F" style="ellipse;whiteSpace=wrap;html=1;aspect=fixed;" vertex="1" parent="1">
          <mxGeometry x="707" y="770" width="20" height="20" as="geometry" />
        </mxCell>
        <mxCell id="vtL7lDyUbymV2ma0Of8F-163" value="G" style="ellipse;whiteSpace=wrap;html=1;aspect=fixed;" vertex="1" parent="1">
          <mxGeometry x="717" y="850" width="20" height="20" as="geometry" />
        </mxCell>
        <mxCell id="vtL7lDyUbymV2ma0Of8F-164" value="H" style="ellipse;whiteSpace=wrap;html=1;aspect=fixed;" vertex="1" parent="1">
          <mxGeometry x="807" y="830" width="20" height="20" as="geometry" />
        </mxCell>
        <mxCell id="vtL7lDyUbymV2ma0Of8F-165" value="" style="endArrow=none;html=1;rounded=0;exitX=1;exitY=0;exitDx=0;exitDy=0;entryX=0;entryY=1;entryDx=0;entryDy=0;" edge="1" parent="1" source="vtL7lDyUbymV2ma0Of8F-157" target="vtL7lDyUbymV2ma0Of8F-158">
          <mxGeometry width="50" height="50" relative="1" as="geometry">
            <mxPoint x="537" y="870" as="sourcePoint" />
            <mxPoint x="587" y="820" as="targetPoint" />
          </mxGeometry>
        </mxCell>
        <mxCell id="vtL7lDyUbymV2ma0Of8F-166" value="" style="endArrow=none;html=1;rounded=0;entryX=-0.007;entryY=0.307;entryDx=0;entryDy=0;entryPerimeter=0;" edge="1" parent="1" source="vtL7lDyUbymV2ma0Of8F-157" target="vtL7lDyUbymV2ma0Of8F-159">
          <mxGeometry width="50" height="50" relative="1" as="geometry">
            <mxPoint x="557" y="930" as="sourcePoint" />
            <mxPoint x="607" y="880" as="targetPoint" />
          </mxGeometry>
        </mxCell>
        <mxCell id="vtL7lDyUbymV2ma0Of8F-167" value="" style="endArrow=none;html=1;rounded=0;entryX=0;entryY=0.5;entryDx=0;entryDy=0;" edge="1" parent="1" source="vtL7lDyUbymV2ma0Of8F-157" target="vtL7lDyUbymV2ma0Of8F-161">
          <mxGeometry width="50" height="50" relative="1" as="geometry">
            <mxPoint x="557" y="900" as="sourcePoint" />
            <mxPoint x="607" y="850" as="targetPoint" />
          </mxGeometry>
        </mxCell>
        <mxCell id="vtL7lDyUbymV2ma0Of8F-168" value="" style="endArrow=none;html=1;rounded=0;exitX=1;exitY=1;exitDx=0;exitDy=0;" edge="1" parent="1" source="vtL7lDyUbymV2ma0Of8F-158" target="vtL7lDyUbymV2ma0Of8F-161">
          <mxGeometry width="50" height="50" relative="1" as="geometry">
            <mxPoint x="577" y="800" as="sourcePoint" />
            <mxPoint x="627" y="864" as="targetPoint" />
          </mxGeometry>
        </mxCell>
        <mxCell id="vtL7lDyUbymV2ma0Of8F-169" value="" style="endArrow=none;html=1;rounded=0;exitX=1;exitY=0.5;exitDx=0;exitDy=0;entryX=0;entryY=1;entryDx=0;entryDy=0;" edge="1" parent="1" source="vtL7lDyUbymV2ma0Of8F-158" target="vtL7lDyUbymV2ma0Of8F-162">
          <mxGeometry width="50" height="50" relative="1" as="geometry">
            <mxPoint x="607" y="810" as="sourcePoint" />
            <mxPoint x="657" y="760" as="targetPoint" />
          </mxGeometry>
        </mxCell>
        <mxCell id="vtL7lDyUbymV2ma0Of8F-170" value="" style="endArrow=none;html=1;rounded=0;exitX=1;exitY=0.5;exitDx=0;exitDy=0;" edge="1" parent="1" source="vtL7lDyUbymV2ma0Of8F-161" target="vtL7lDyUbymV2ma0Of8F-163">
          <mxGeometry width="50" height="50" relative="1" as="geometry">
            <mxPoint x="657" y="870" as="sourcePoint" />
            <mxPoint x="707" y="820" as="targetPoint" />
          </mxGeometry>
        </mxCell>
        <mxCell id="vtL7lDyUbymV2ma0Of8F-171" value="" style="endArrow=none;html=1;rounded=0;exitX=1;exitY=0;exitDx=0;exitDy=0;entryX=0.5;entryY=1;entryDx=0;entryDy=0;" edge="1" parent="1" source="vtL7lDyUbymV2ma0Of8F-161" target="vtL7lDyUbymV2ma0Of8F-162">
          <mxGeometry width="50" height="50" relative="1" as="geometry">
            <mxPoint x="647" y="860" as="sourcePoint" />
            <mxPoint x="697" y="810" as="targetPoint" />
          </mxGeometry>
        </mxCell>
        <mxCell id="vtL7lDyUbymV2ma0Of8F-175" value="10" style="text;html=1;align=center;verticalAlign=middle;resizable=0;points=[];autosize=1;strokeColor=none;fillColor=none;" vertex="1" parent="1">
          <mxGeometry x="537" y="830" width="40" height="30" as="geometry" />
        </mxCell>
        <mxCell id="vtL7lDyUbymV2ma0Of8F-176" value="7" style="text;html=1;align=center;verticalAlign=middle;resizable=0;points=[];autosize=1;strokeColor=none;fillColor=none;" vertex="1" parent="1">
          <mxGeometry x="592" y="828" width="30" height="30" as="geometry" />
        </mxCell>
        <mxCell id="vtL7lDyUbymV2ma0Of8F-177" value="11" style="text;html=1;align=center;verticalAlign=middle;resizable=0;points=[];autosize=1;strokeColor=none;fillColor=none;" vertex="1" parent="1">
          <mxGeometry x="557" y="858" width="40" height="30" as="geometry" />
        </mxCell>
        <mxCell id="vtL7lDyUbymV2ma0Of8F-178" value="15" style="text;html=1;align=center;verticalAlign=middle;resizable=0;points=[];autosize=1;strokeColor=none;fillColor=none;" vertex="1" parent="1">
          <mxGeometry x="577" y="898" width="40" height="30" as="geometry" />
        </mxCell>
        <mxCell id="vtL7lDyUbymV2ma0Of8F-180" value="9" style="text;html=1;align=center;verticalAlign=middle;resizable=0;points=[];autosize=1;strokeColor=none;fillColor=none;" vertex="1" parent="1">
          <mxGeometry x="662" y="848" width="30" height="30" as="geometry" />
        </mxCell>
        <mxCell id="vtL7lDyUbymV2ma0Of8F-181" value="13" style="text;html=1;align=center;verticalAlign=middle;resizable=0;points=[];autosize=1;strokeColor=none;fillColor=none;" vertex="1" parent="1">
          <mxGeometry x="622" y="780" width="40" height="30" as="geometry" />
        </mxCell>
        <mxCell id="vtL7lDyUbymV2ma0Of8F-182" value="20" style="text;html=1;align=center;verticalAlign=middle;resizable=0;points=[];autosize=1;strokeColor=none;fillColor=none;" vertex="1" parent="1">
          <mxGeometry x="657" y="798" width="40" height="30" as="geometry" />
        </mxCell>
        <mxCell id="vtL7lDyUbymV2ma0Of8F-185" value="删除节点D后，A到H变成不可达状态" style="text;html=1;align=center;verticalAlign=middle;resizable=0;points=[];autosize=1;strokeColor=none;fillColor=none;" vertex="1" parent="1">
          <mxGeometry x="550" y="738" width="220" height="30" as="geometry" />
        </mxCell>
        <mxCell id="vtL7lDyUbymV2ma0Of8F-186" value="" style="endArrow=none;dashed=1;html=1;dashPattern=1 3;strokeWidth=2;rounded=0;exitX=1;exitY=0.5;exitDx=0;exitDy=0;entryX=0;entryY=0.5;entryDx=0;entryDy=0;" edge="1" parent="1" source="vtL7lDyUbymV2ma0Of8F-159" target="vtL7lDyUbymV2ma0Of8F-160">
          <mxGeometry width="50" height="50" relative="1" as="geometry">
            <mxPoint x="670" y="960" as="sourcePoint" />
            <mxPoint x="720" y="910" as="targetPoint" />
          </mxGeometry>
        </mxCell>
        <mxCell id="vtL7lDyUbymV2ma0Of8F-187" value="" style="endArrow=none;dashed=1;html=1;dashPattern=1 3;strokeWidth=2;rounded=0;entryX=0;entryY=0;entryDx=0;entryDy=0;exitX=0.757;exitY=1.06;exitDx=0;exitDy=0;exitPerimeter=0;" edge="1" parent="1" source="vtL7lDyUbymV2ma0Of8F-163" target="vtL7lDyUbymV2ma0Of8F-160">
          <mxGeometry width="50" height="50" relative="1" as="geometry">
            <mxPoint x="710" y="920" as="sourcePoint" />
            <mxPoint x="760" y="870" as="targetPoint" />
          </mxGeometry>
        </mxCell>
        <mxCell id="vtL7lDyUbymV2ma0Of8F-188" value="" style="endArrow=none;dashed=1;html=1;dashPattern=1 3;strokeWidth=2;rounded=0;exitX=0.73;exitY=-0.107;exitDx=0;exitDy=0;exitPerimeter=0;entryX=0.337;entryY=1.06;entryDx=0;entryDy=0;entryPerimeter=0;" edge="1" parent="1" source="vtL7lDyUbymV2ma0Of8F-160" target="vtL7lDyUbymV2ma0Of8F-164">
          <mxGeometry width="50" height="50" relative="1" as="geometry">
            <mxPoint x="770" y="900" as="sourcePoint" />
            <mxPoint x="820" y="850" as="targetPoint" />
          </mxGeometry>
        </mxCell>
      </root>
    </mxGraphModel>
  </diagram>
</mxfile>
